<svg width="19" height="19" viewBox="0 0 19 19" fill="none" xmlns="http://www.w3.org/2000/svg">
<path d="M14.2565 0C12.5716 0 10.7572 0.456594 9.50432 1.71223C8.25148 0.456594 6.43702 0 4.75216 0C3.49932 0 2.16871 0.251126 1.05412 0.901772C0.423374 1.27846 0 2.08892 0 3.01352V15.8895C0 17.3734 1.05412 18.4692 2.14279 18.1039C2.98954 17.8186 3.88813 17.693 4.75216 17.693C6.10005 17.693 7.53433 17.9898 8.69213 18.7432C9.21055 19.0856 9.79809 19.0856 10.3079 18.7432C11.4657 17.9784 12.9 17.693 14.2478 17.693C15.1119 17.693 16.0105 17.8186 16.8572 18.1039C17.9459 18.4806 19 17.3848 19 15.8895V3.01352C19 2.08892 18.5766 1.27846 17.9459 0.901772C16.8399 0.251126 15.5093 0 14.2565 0ZM17.2806 14.5311C17.2806 15.2502 16.7794 15.7753 16.2437 15.6497C15.5957 15.4899 14.9218 15.4214 14.2565 15.4214C12.7876 15.4214 10.6708 16.1634 9.50432 17.1337V3.99519C10.6708 3.02493 12.7876 2.28297 14.2565 2.28297C15.0514 2.28297 15.8377 2.3857 16.5894 2.60258C16.9868 2.71673 17.2806 3.18474 17.2806 3.72124V14.5311Z" fill="url(#paint0_radial_6_287)"/>
<path d="M11.215 7.43102C10.9385 7.43102 10.688 7.20272 10.6016 6.83745C10.4893 6.39227 10.6793 5.90143 11.0163 5.76445C12.3469 5.19371 14.0663 5.01107 15.6475 5.25079C16.0018 5.30786 16.261 5.73021 16.2178 6.19822C16.1746 6.66623 15.8549 7.00867 15.5006 6.9516C14.1009 6.73471 12.5716 6.90594 11.4138 7.39677C11.3446 7.40819 11.2755 7.43102 11.215 7.43102Z" fill="url(#paint1_radial_6_287)"/>
<path d="M11.215 10.4674C10.9385 10.4674 10.688 10.2391 10.6016 9.87382C10.4893 9.42865 10.6793 8.93781 11.0163 8.80083C12.3383 8.23009 14.0663 8.04745 15.6475 8.28716C16.0018 8.34424 16.261 8.76659 16.2178 9.23459C16.1746 9.7026 15.8549 10.045 15.5006 9.98797C14.1009 9.77109 12.5716 9.94231 11.4138 10.4332C11.3446 10.456 11.2755 10.4674 11.215 10.4674Z" fill="url(#paint2_radial_6_287)"/>
<path d="M11.215 13.5038C10.9385 13.5038 10.688 13.2755 10.6016 12.9102C10.4893 12.465 10.6793 11.9742 11.0163 11.8372C12.3383 11.2665 14.0663 11.0838 15.6475 11.3235C16.0018 11.3806 16.261 11.803 16.2178 12.271C16.1746 12.739 15.8549 13.07 15.5006 13.0243C14.1009 12.8075 12.5716 12.9787 11.4138 13.4695C11.3446 13.4924 11.2755 13.5038 11.215 13.5038Z" fill="url(#paint3_radial_6_287)"/>
<defs>
<radialGradient id="paint0_radial_6_287" cx="0" cy="0" r="1" gradientUnits="userSpaceOnUse" gradientTransform="translate(9.5 9.7375) rotate(0.774219) scale(87.883 17.6536)">
<stop stop-color="#ED63BA"/>
<stop offset="1" stop-color="#771586"/>
</radialGradient>
<radialGradient id="paint1_radial_6_287" cx="0" cy="0" r="1" gradientUnits="userSpaceOnUse" gradientTransform="translate(13.3958 6.31802) rotate(0.312684) scale(26.1467 2.12145)">
<stop stop-color="#ED63BA"/>
<stop offset="1" stop-color="#771586"/>
</radialGradient>
<radialGradient id="paint2_radial_6_287" cx="0" cy="0" r="1" gradientUnits="userSpaceOnUse" gradientTransform="translate(13.3958 9.3544) rotate(0.312684) scale(26.1467 2.12145)">
<stop stop-color="#ED63BA"/>
<stop offset="1" stop-color="#771586"/>
</radialGradient>
<radialGradient id="paint3_radial_6_287" cx="0" cy="0" r="1" gradientUnits="userSpaceOnUse" gradientTransform="translate(13.3958 12.3908) rotate(0.312684) scale(26.1467 2.12145)">
<stop stop-color="#ED63BA"/>
<stop offset="1" stop-color="#771586"/>
</radialGradient>
</defs>
</svg>
