<svg width="19" height="19" viewBox="0 0 19 19" fill="none" xmlns="http://www.w3.org/2000/svg">
<path d="M10.2524 12.4074C10.3756 12.0807 10.2964 11.7085 10.05 11.4544L8.21072 9.58467L8.23713 9.55744C9.76839 7.79662 10.8596 5.77259 11.5021 3.63056H13.2093C13.6845 3.63056 14.0806 3.22212 14.0806 2.732V2.71384C14.0806 2.22372 13.6845 1.81528 13.2093 1.81528H7.92031V0.90764C7.92031 0.408438 7.5243 0 7.04028 0C6.55626 0 6.16024 0.408438 6.16024 0.90764V1.81528H0.871234C0.396016 1.81528 0 2.22372 0 2.71384C0 3.21304 0.396016 3.61241 0.871234 3.61241H9.82999C9.24037 5.37323 8.30753 7.03421 7.04028 8.48643C6.32745 7.67863 5.72903 6.79822 5.22741 5.87243C5.0866 5.60921 4.83139 5.44584 4.54098 5.44584C3.93376 5.44584 3.54654 6.12657 3.84575 6.67115C4.40017 7.69678 5.0778 8.67703 5.86983 9.58467L2.02408 13.4966C1.67207 13.8506 1.67207 14.4315 2.02408 14.7854C2.36729 15.1394 2.92172 15.1394 3.27373 14.7854L7.04028 10.8917L8.81795 12.7251C9.26677 13.188 10.0324 13.0156 10.2524 12.4074ZM14.5206 7.26112C13.9926 7.26112 13.5173 7.59694 13.3325 8.1143L10.1028 17.0092C9.89159 17.5628 10.2964 18.1528 10.8684 18.1528C11.2116 18.1528 11.5197 17.935 11.6429 17.5991L12.4261 15.4299H16.6063L17.3983 17.5991C17.5215 17.9259 17.8295 18.1528 18.1727 18.1528C18.7447 18.1528 19.1496 17.5628 18.9471 17.0092L15.7174 8.1143C15.5238 7.59694 15.0486 7.26112 14.5206 7.26112ZM13.0949 13.6146L14.5206 9.68451L15.9462 13.6146H13.0949Z" fill="url(#paint0_radial_6_295)"/>
<defs>
<radialGradient id="paint0_radial_6_295" cx="0" cy="0" r="1" gradientUnits="userSpaceOnUse" gradientTransform="translate(9.5 9.30331) rotate(0.739701) scale(87.8823 16.8666)">
<stop stop-color="#ED63BA"/>
<stop offset="1" stop-color="#771586"/>
</radialGradient>
</defs>
</svg>
