<svg width="237" height="48" viewBox="0 0 237 48" fill="none" xmlns="http://www.w3.org/2000/svg">
<path d="M13.288 33.96C13.288 36.616 12.808 38.808 11.848 40.536C10.92 42.264 9.67199 43.608 8.10398 44.568C6.56798 45.56 4.72798 46.408 2.58398 47.112L0.471985 41.544C1.87998 41 2.93599 40.376 3.63999 39.672C4.34399 38.968 4.80799 38.152 5.03199 37.224C5.28799 36.296 5.41599 35.112 5.41599 33.672V5.73601H13.288V33.96Z" fill="#2C2C2C"/>
<path d="M30.2504 12.696C34.1544 12.696 37.2104 13.896 39.4184 16.296C41.6264 18.664 42.7304 21.992 42.7304 26.28C42.7304 29 42.2184 31.384 41.1944 33.432C40.2024 35.448 38.7624 37.016 36.8744 38.136C35.0184 39.256 32.8104 39.816 30.2504 39.816C26.3784 39.816 23.3224 38.632 21.0824 36.264C18.8744 33.864 17.7704 30.52 17.7704 26.232C17.7704 23.512 18.2664 21.144 19.2584 19.128C20.2824 17.08 21.7224 15.496 23.5784 14.376C25.4664 13.256 27.6904 12.696 30.2504 12.696ZM30.2504 18.264C28.7144 18.264 27.5624 18.92 26.7944 20.232C26.0264 21.512 25.6424 23.512 25.6424 26.232C25.6424 29.016 26.0104 31.048 26.7464 32.328C27.5144 33.608 28.6824 34.248 30.2504 34.248C31.7864 34.248 32.9384 33.608 33.7064 32.328C34.4744 31.016 34.8584 29 34.8584 26.28C34.8584 23.496 34.4744 21.464 33.7064 20.184C32.9704 18.904 31.8184 18.264 30.2504 18.264Z" fill="#2C2C2C"/>
<path d="M67.0289 31.608C67.0289 32.568 67.1569 33.272 67.4129 33.72C67.7009 34.168 68.1489 34.504 68.7569 34.728L67.1729 39.672C65.6049 39.544 64.3249 39.208 63.3329 38.664C62.3409 38.088 61.5729 37.192 61.0289 35.976C59.3649 38.536 56.8049 39.816 53.3489 39.816C50.8209 39.816 48.8049 39.08 47.3009 37.608C45.7969 36.136 45.0449 34.216 45.0449 31.848C45.0449 29.064 46.0689 26.936 48.1169 25.464C50.1649 23.992 53.1249 23.256 56.9969 23.256H59.5889V22.152C59.5889 20.648 59.2689 19.624 58.6289 19.08C57.9889 18.504 56.8689 18.216 55.2689 18.216C54.4369 18.216 53.4289 18.344 52.2449 18.6C51.0609 18.824 49.8449 19.144 48.5969 19.56L46.8689 14.568C48.4689 13.96 50.1009 13.496 51.7649 13.176C53.4609 12.856 55.0289 12.696 56.4689 12.696C60.1169 12.696 62.7889 13.448 64.4849 14.952C66.1809 16.456 67.0289 18.712 67.0289 21.72V31.608ZM55.5569 34.392C57.2849 34.392 58.6289 33.576 59.5889 31.944V27.432H57.7169C55.9889 27.432 54.6929 27.736 53.8289 28.344C52.9969 28.952 52.5809 29.896 52.5809 31.176C52.5809 32.2 52.8369 33 53.3489 33.576C53.8929 34.12 54.6289 34.392 55.5569 34.392ZM59.5889 8.52001C58.8849 8.52001 58.2769 8.40801 57.7649 8.18401C57.2529 7.96001 56.6929 7.64001 56.0849 7.22401C55.2849 6.64801 54.6289 6.36001 54.1169 6.36001C53.5729 6.36001 53.1089 6.53601 52.7249 6.88801C52.3729 7.20801 51.9889 7.73601 51.5729 8.47201L47.7809 6.64801C48.4209 4.98401 49.2689 3.62401 50.3249 2.56801C51.4129 1.51201 52.6289 0.984009 53.9729 0.984009C54.7089 0.984009 55.3329 1.11201 55.8449 1.36801C56.3889 1.59201 56.9809 1.91201 57.6209 2.32801C58.0689 2.61601 58.4209 2.82401 58.6769 2.95201C58.9649 3.08001 59.2529 3.14401 59.5409 3.14401C60.0529 3.14401 60.4849 2.98401 60.8369 2.66401C61.2209 2.31201 61.6209 1.76801 62.0369 1.03201L65.8289 2.90401C65.1569 4.60001 64.2769 5.96001 63.1889 6.98401C62.1329 8.00801 60.9329 8.52001 59.5889 8.52001Z" fill="#2C2C2C"/>
<path d="M84.1097 12.696C88.0137 12.696 91.0697 13.896 93.2777 16.296C95.4857 18.664 96.5897 21.992 96.5897 26.28C96.5897 29 96.0777 31.384 95.0537 33.432C94.0617 35.448 92.6217 37.016 90.7337 38.136C88.8777 39.256 86.6697 39.816 84.1097 39.816C80.2377 39.816 77.1817 38.632 74.9417 36.264C72.7337 33.864 71.6297 30.52 71.6297 26.232C71.6297 23.512 72.1257 21.144 73.1177 19.128C74.1417 17.08 75.5817 15.496 77.4377 14.376C79.3257 13.256 81.5497 12.696 84.1097 12.696ZM84.1097 18.264C82.5737 18.264 81.4217 18.92 80.6537 20.232C79.8857 21.512 79.5017 23.512 79.5017 26.232C79.5017 29.016 79.8697 31.048 80.6057 32.328C81.3737 33.608 82.5417 34.248 84.1097 34.248C85.6457 34.248 86.7977 33.608 87.5657 32.328C88.3337 31.016 88.7177 29 88.7177 26.28C88.7177 23.496 88.3337 21.464 87.5657 20.184C86.8297 18.904 85.6777 18.264 84.1097 18.264Z" fill="#2C2C2C"/>
<path d="M123.388 5.73601C127.772 5.73601 131.18 6.64801 133.612 8.47201C136.044 10.296 137.26 13 137.26 16.584C137.26 20.328 136.06 23.16 133.66 25.08C131.292 26.968 128.108 27.912 124.108 27.912H120.508V39H112.636V5.73601H123.388ZM123.436 22.248C125.292 22.248 126.7 21.816 127.66 20.952C128.652 20.056 129.148 18.6 129.148 16.584C129.148 13.096 127.196 11.352 123.292 11.352H120.508V22.248H123.436Z" fill="#2C2C2C"/>
<path d="M162.044 25.752C162.044 26.808 161.996 27.72 161.9 28.488H146.108C146.364 30.632 146.972 32.136 147.932 33C148.892 33.864 150.22 34.296 151.916 34.296C152.94 34.296 153.932 34.12 154.892 33.768C155.852 33.384 156.892 32.808 158.012 32.04L161.132 36.264C158.156 38.632 154.844 39.816 151.196 39.816C147.068 39.816 143.9 38.6 141.692 36.168C139.484 33.736 138.38 30.472 138.38 26.376C138.38 23.784 138.844 21.464 139.772 19.416C140.7 17.336 142.06 15.704 143.852 14.52C145.644 13.304 147.788 12.696 150.284 12.696C153.964 12.696 156.844 13.848 158.924 16.152C161.004 18.456 162.044 21.656 162.044 25.752ZM154.604 23.592C154.54 19.688 153.164 17.736 150.476 17.736C149.164 17.736 148.14 18.216 147.404 19.176C146.7 20.136 146.268 21.72 146.108 23.928H154.604V23.592Z" fill="#2C2C2C"/>
<path d="M189.152 3.38401V39H182.432L182.048 36.024C180.256 38.552 177.84 39.816 174.8 39.816C171.632 39.816 169.216 38.6 167.552 36.168C165.92 33.736 165.104 30.408 165.104 26.184C165.104 23.592 165.536 21.272 166.4 19.224C167.264 17.176 168.48 15.576 170.048 14.424C171.648 13.272 173.472 12.696 175.52 12.696C177.952 12.696 179.968 13.496 181.568 15.096V2.56801L189.152 3.38401ZM177.152 34.248C178.912 34.248 180.384 33.288 181.568 31.368V20.376C180.96 19.64 180.336 19.096 179.696 18.744C179.088 18.392 178.384 18.216 177.584 18.216C176.176 18.216 175.056 18.872 174.224 20.184C173.392 21.496 172.976 23.512 172.976 26.232C172.976 29.208 173.328 31.288 174.032 32.472C174.768 33.656 175.808 34.248 177.152 34.248Z" fill="#2C2C2C"/>
<path d="M208.909 12.792C209.837 12.792 210.685 12.904 211.453 13.128L210.253 20.472C209.293 20.248 208.525 20.136 207.949 20.136C206.445 20.136 205.293 20.664 204.493 21.72C203.725 22.744 203.117 24.296 202.669 26.376V39H195.085V13.512H201.709L202.333 18.456C202.909 16.696 203.773 15.32 204.925 14.328C206.109 13.304 207.437 12.792 208.909 12.792Z" fill="#2C2C2C"/>
<path d="M223.938 12.696C227.842 12.696 230.898 13.896 233.106 16.296C235.314 18.664 236.418 21.992 236.418 26.28C236.418 29 235.906 31.384 234.882 33.432C233.89 35.448 232.45 37.016 230.562 38.136C228.706 39.256 226.498 39.816 223.938 39.816C220.066 39.816 217.01 38.632 214.77 36.264C212.562 33.864 211.458 30.52 211.458 26.232C211.458 23.512 211.954 21.144 212.946 19.128C213.97 17.08 215.41 15.496 217.266 14.376C219.154 13.256 221.378 12.696 223.938 12.696ZM223.938 18.264C222.402 18.264 221.25 18.92 220.482 20.232C219.714 21.512 219.33 23.512 219.33 26.232C219.33 29.016 219.698 31.048 220.434 32.328C221.202 33.608 222.37 34.248 223.938 34.248C225.474 34.248 226.626 33.608 227.394 32.328C228.162 31.016 228.546 29 228.546 26.28C228.546 23.496 228.162 21.464 227.394 20.184C226.658 18.904 225.506 18.264 223.938 18.264Z" fill="#2C2C2C"/>
</svg>
